<?xml version="1.0" encoding="UTF-8"?>
<svg id="_图层_1" data-name="图层_1" xmlns="http://www.w3.org/2000/svg" version="1.1" viewBox="0 0 87.5 68.75">
  <!-- Generator: Adobe Illustrator 29.4.0, SVG Export Plug-In . SVG Version: 2.1.0 Build 152)  -->
  <defs>
    <style>
      .st0 {
        fill-rule: evenodd;
      }
    </style>
  </defs>
  <path class="st0" d="M0,0h6.25v59.48c0,.8.32,1.57.88,2.14.57.57,1.33.88,2.14.88h78.23v6.25H9.27c-2.46,0-4.82-.98-6.55-2.71C.98,64.3,0,61.94,0,59.48V0ZM13.83,52.08l26.92-27.04c1.62-1.63,4.25-1.64,5.88-.03l8.41,8.31,14.07-14.07h-8.69v-8.33h18.75c2.3,0,4.16,1.86,4.16,4.16v17.73h-8.33v-7.68l-17,17c-1.62,1.62-4.24,1.63-5.88.02l-8.39-8.3-18.14,18.22h-11.76Z"/>
</svg>